# 3ds Max Wavefront OBJ Exporter v0.97b - (c)2007 guruware
# File Created: 10.02.2016 10:29:49

mtllib Window.mtl

#
# object Box001
#

v  -0.4600 0.0000 3.0000
v  0.4022 0.0000 3.0000
v  -0.4600 0.0000 -3.0000
v  0.4022 0.0000 -3.0000
v  -0.4600 0.2000 3.0000
v  0.4022 0.2000 3.0000
v  -0.4600 0.2000 -3.0000
v  0.4022 0.2000 -3.0000
v  -0.1726 0.0000 -3.0000
v  0.1148 0.0000 -3.0000
v  0.1148 0.0000 3.0000
v  -0.1726 0.0000 3.0000
v  -0.1726 0.2000 3.0000
v  0.1148 0.2000 3.0000
v  0.1148 0.2000 -3.0000
v  -0.1726 0.2000 -3.0000
v  0.4022 5.2000 3.0000
v  0.4022 5.2000 -3.0000
v  0.1148 5.2000 -3.0000
v  0.1148 5.2000 3.0000
v  0.4022 0.2000 -0.0000
v  0.1148 0.2000 -0.0000
v  0.4022 5.2000 -0.0000
v  0.1148 5.2000 -0.0000
v  0.4022 2.7000 3.0000
v  0.4022 2.7000 -3.0000
v  0.1148 2.7000 -3.0000
v  0.1148 2.7000 3.0000
v  0.4022 2.7000 -0.0000
v  0.1148 2.7000 -0.0000
v  0.1148 0.4000 -2.8000
v  0.1148 0.4000 -0.2000
v  0.1148 2.5000 -0.2000
v  0.1148 2.5000 -2.8000
v  0.4022 0.4000 -2.8000
v  0.4022 2.5000 -2.8000
v  0.4022 2.5000 -0.2000
v  0.4022 0.4000 -0.2000
v  0.4022 0.4000 2.8000
v  0.4022 0.4000 0.2000
v  0.4022 2.5000 0.2000
v  0.4022 2.5000 2.8000
v  0.1148 0.4000 2.8000
v  0.1148 2.5000 2.8000
v  0.1148 2.5000 0.2000
v  0.1148 0.4000 0.2000
v  0.1148 5.0000 -0.2000
v  0.1148 5.0000 -2.8000
v  0.1148 2.9000 -2.8000
v  0.1148 2.9000 -0.2000
v  0.4022 5.0000 -2.8000
v  0.4022 5.0000 -0.2000
v  0.4022 2.9000 -0.2000
v  0.4022 2.9000 -2.8000
v  0.4022 5.0000 0.2000
v  0.4022 5.0000 2.8000
v  0.4022 2.9000 2.8000
v  0.4022 2.9000 0.2000
v  0.1148 5.0000 2.8000
v  0.1148 5.0000 0.2000
v  0.1148 2.9000 0.2000
v  0.1148 2.9000 2.8000
# 62 vertices

vn 0.0000 -1.0000 -0.0000
vn 0.0000 -1.0000 -0.0000
vn 0.0000 -1.0000 -0.0000
vn 0.0000 -1.0000 -0.0000
vn 0.0000 -1.0000 -0.0000
vn 0.0000 -1.0000 -0.0000
vn 0.0000 1.0000 -0.0000
vn 0.0000 1.0000 -0.0000
vn 0.0000 1.0000 -0.0000
vn 0.0000 1.0000 -0.0000
vn 0.0000 1.0000 -0.0000
vn 0.0000 1.0000 -0.0000
vn 0.0000 1.0000 -0.0000
vn 0.0000 1.0000 -0.0000
vn 0.0000 1.0000 -0.0000
vn 0.0000 0.0000 1.0000
vn 0.0000 0.0000 1.0000
vn 0.0000 0.0000 1.0000
vn 0.0000 0.0000 1.0000
vn 0.0000 0.0000 1.0000
vn 0.0000 0.0000 1.0000
vn 1.0000 0.0000 -0.0000
vn 1.0000 0.0000 -0.0000
vn 1.0000 0.0000 -0.0000
vn 1.0000 0.0000 -0.0000
vn 1.0000 0.0000 -0.0000
vn 1.0000 0.0000 -0.0000
vn 1.0000 0.0000 -0.0000
vn 1.0000 0.0000 -0.0000
vn 1.0000 0.0000 -0.0000
vn 0.0000 0.0000 -1.0000
vn 0.0000 0.0000 -1.0000
vn 0.0000 0.0000 -1.0000
vn 0.0000 0.0000 -1.0000
vn 0.0000 0.0000 -1.0000
vn 0.0000 0.0000 -1.0000
vn -1.0000 0.0000 -0.0000
vn -1.0000 0.0000 -0.0000
vn -1.0000 0.0000 -0.0000
vn -1.0000 0.0000 -0.0000
vn -1.0000 0.0000 -0.0000
vn -1.0000 0.0000 -0.0000
vn 0.0000 -1.0000 -0.0000
vn 0.0000 -1.0000 -0.0000
vn 0.0000 -1.0000 -0.0000
vn 0.0000 -1.0000 -0.0000
vn 0.0000 -1.0000 -0.0000
vn 0.0000 -1.0000 -0.0000
vn 0.0000 -1.0000 -0.0000
vn 0.0000 -1.0000 -0.0000
vn 0.0000 -1.0000 -0.0000
vn 0.0000 -1.0000 -0.0000
vn 0.0000 -1.0000 -0.0000
vn 0.0000 -1.0000 -0.0000
vn 0.0000 1.0000 -0.0000
vn 0.0000 1.0000 -0.0000
vn 0.0000 1.0000 -0.0000
vn 0.0000 1.0000 -0.0000
vn 0.0000 1.0000 -0.0000
vn 0.0000 1.0000 -0.0000
vn 0.0000 1.0000 -0.0000
vn 0.0000 1.0000 -0.0000
vn 0.0000 1.0000 -0.0000
vn 0.0000 1.0000 -0.0000
vn 0.0000 1.0000 -0.0000
vn 0.0000 1.0000 -0.0000
vn 0.0000 0.0000 1.0000
vn 0.0000 0.0000 1.0000
vn 0.0000 0.0000 1.0000
vn 0.0000 0.0000 1.0000
vn 0.0000 0.0000 1.0000
vn 0.0000 0.0000 1.0000
vn 0.0000 0.0000 1.0000
vn 0.0000 0.0000 1.0000
vn 0.0000 0.0000 1.0000
vn 0.0000 0.0000 1.0000
vn 0.0000 0.0000 1.0000
vn 0.0000 0.0000 1.0000
vn 0.0000 0.0000 -1.0000
vn 0.0000 0.0000 -1.0000
vn 0.0000 0.0000 -1.0000
vn 0.0000 0.0000 -1.0000
vn 0.0000 0.0000 -1.0000
vn 0.0000 0.0000 -1.0000
vn 0.0000 0.0000 -1.0000
vn 0.0000 0.0000 -1.0000
vn 0.0000 0.0000 -1.0000
vn 0.0000 0.0000 -1.0000
vn 0.0000 0.0000 -1.0000
vn 0.0000 0.0000 -1.0000
vn 0.0000 0.0000 -1.0000
vn 0.0000 0.0000 -1.0000
vn 0.0000 0.0000 -1.0000
vn 0.0000 0.0000 -1.0000
vn 0.0000 0.0000 -1.0000
vn 0.0000 0.0000 -1.0000
vn 0.0000 0.0000 1.0000
vn 0.0000 0.0000 1.0000
vn 0.0000 0.0000 1.0000
vn 0.0000 0.0000 1.0000
vn 0.0000 0.0000 1.0000
vn 0.0000 0.0000 1.0000
vn 0.0000 1.0000 -0.0000
vn 0.0000 1.0000 -0.0000
vn 0.0000 1.0000 -0.0000
vn 0.0000 1.0000 -0.0000
vn 0.0000 1.0000 -0.0000
vn 0.0000 1.0000 -0.0000
vn 0.0000 0.0000 -1.0000
vn 0.0000 0.0000 -1.0000
vn 0.0000 0.0000 -1.0000
vn 0.0000 0.0000 -1.0000
vn 0.0000 0.0000 -1.0000
vn 0.0000 0.0000 -1.0000
vn 0.0000 0.0000 1.0000
vn 0.0000 0.0000 1.0000
vn 0.0000 0.0000 1.0000
vn 0.0000 0.0000 1.0000
vn 0.0000 0.0000 1.0000
vn 0.0000 0.0000 1.0000
vn -1.0000 0.0000 -0.0000
vn -1.0000 0.0000 -0.0000
vn -1.0000 0.0000 -0.0000
vn -1.0000 0.0000 -0.0000
vn -1.0000 0.0000 -0.0000
vn -1.0000 0.0000 -0.0000
vn -1.0000 0.0000 -0.0000
vn -1.0000 0.0000 -0.0000
vn -1.0000 0.0000 -0.0000
vn -1.0000 0.0000 -0.0000
vn -1.0000 0.0000 -0.0000
vn -1.0000 0.0000 -0.0000
vn -1.0000 0.0000 -0.0000
vn -1.0000 0.0000 -0.0000
vn -1.0000 0.0000 -0.0000
vn -1.0000 0.0000 -0.0000
vn -1.0000 0.0000 -0.0000
vn -1.0000 0.0000 -0.0000
vn -1.0000 0.0000 -0.0000
vn -1.0000 0.0000 -0.0000
vn -1.0000 0.0000 -0.0000
vn -1.0000 0.0000 -0.0000
vn -1.0000 0.0000 -0.0000
vn -1.0000 0.0000 -0.0000
vn 1.0000 0.0000 -0.0000
vn 1.0000 0.0000 -0.0000
vn 1.0000 0.0000 -0.0000
vn 1.0000 0.0000 -0.0000
vn 1.0000 0.0000 -0.0000
vn 1.0000 0.0000 -0.0000
vn 1.0000 0.0000 -0.0000
vn 1.0000 0.0000 -0.0000
vn 1.0000 0.0000 -0.0000
vn 1.0000 0.0000 -0.0000
vn 1.0000 0.0000 -0.0000
vn 1.0000 0.0000 -0.0000
vn 1.0000 0.0000 -0.0000
vn 1.0000 0.0000 -0.0000
vn 1.0000 0.0000 -0.0000
vn 1.0000 0.0000 -0.0000
vn 1.0000 0.0000 -0.0000
vn 1.0000 0.0000 -0.0000
vn 1.0000 0.0000 -0.0000
vn 1.0000 0.0000 -0.0000
vn 1.0000 0.0000 -0.0000
vn 1.0000 0.0000 -0.0000
vn 1.0000 0.0000 -0.0000
vn 1.0000 0.0000 -0.0000
vn 1.0000 0.0000 -0.0000
vn 1.0000 0.0000 -0.0000
vn 1.0000 0.0000 -0.0000
vn 1.0000 0.0000 -0.0000
vn 1.0000 0.0000 -0.0000
vn 1.0000 0.0000 -0.0000
vn 1.0000 0.0000 -0.0000
vn 1.0000 0.0000 -0.0000
vn 1.0000 0.0000 -0.0000
vn 1.0000 0.0000 -0.0000
vn 1.0000 0.0000 -0.0000
vn 1.0000 0.0000 -0.0000
vn 1.0000 0.0000 -0.0000
vn 1.0000 0.0000 -0.0000
vn 1.0000 0.0000 -0.0000
vn 1.0000 0.0000 -0.0000
vn 1.0000 0.0000 -0.0000
vn 1.0000 0.0000 -0.0000
vn 1.0000 0.0000 -0.0000
vn 1.0000 0.0000 -0.0000
vn 1.0000 0.0000 -0.0000
vn 1.0000 0.0000 -0.0000
vn 1.0000 0.0000 -0.0000
vn 1.0000 0.0000 -0.0000
vn -1.0000 0.0000 -0.0000
vn -1.0000 0.0000 -0.0000
vn -1.0000 0.0000 -0.0000
vn -1.0000 0.0000 -0.0000
vn -1.0000 0.0000 -0.0000
vn -1.0000 0.0000 -0.0000
vn -1.0000 0.0000 -0.0000
vn -1.0000 0.0000 -0.0000
vn -1.0000 0.0000 -0.0000
vn -1.0000 0.0000 -0.0000
vn -1.0000 0.0000 -0.0000
vn -1.0000 0.0000 -0.0000
vn -1.0000 0.0000 -0.0000
vn -1.0000 0.0000 -0.0000
vn -1.0000 0.0000 -0.0000
vn -1.0000 0.0000 -0.0000
vn -1.0000 0.0000 -0.0000
vn -1.0000 0.0000 -0.0000
vn -1.0000 0.0000 -0.0000
vn -1.0000 0.0000 -0.0000
vn -1.0000 0.0000 -0.0000
vn -1.0000 0.0000 -0.0000
vn -1.0000 0.0000 -0.0000
vn -1.0000 0.0000 -0.0000
vn -1.0000 0.0000 -0.0000
vn -1.0000 0.0000 -0.0000
vn -1.0000 0.0000 -0.0000
vn -1.0000 0.0000 -0.0000
vn -1.0000 0.0000 -0.0000
vn -1.0000 0.0000 -0.0000
vn -1.0000 0.0000 -0.0000
vn -1.0000 0.0000 -0.0000
vn -1.0000 0.0000 -0.0000
vn -1.0000 0.0000 -0.0000
vn -1.0000 0.0000 -0.0000
vn -1.0000 0.0000 -0.0000
vn -1.0000 0.0000 -0.0000
vn -1.0000 0.0000 -0.0000
vn -1.0000 0.0000 -0.0000
vn -1.0000 0.0000 -0.0000
vn -1.0000 0.0000 -0.0000
vn -1.0000 0.0000 -0.0000
vn -1.0000 0.0000 -0.0000
vn -1.0000 0.0000 -0.0000
vn -1.0000 0.0000 -0.0000
vn -1.0000 0.0000 -0.0000
vn -1.0000 0.0000 -0.0000
vn -1.0000 0.0000 -0.0000
vn 1.0000 0.0000 -0.0000
vn 1.0000 0.0000 -0.0000
vn 1.0000 0.0000 -0.0000
vn 1.0000 0.0000 -0.0000
vn 1.0000 0.0000 -0.0000
vn 1.0000 0.0000 -0.0000
vn 1.0000 0.0000 -0.0000
vn 1.0000 0.0000 -0.0000
vn 1.0000 0.0000 -0.0000
vn 1.0000 0.0000 -0.0000
vn 1.0000 0.0000 -0.0000
vn 1.0000 0.0000 -0.0000
vn 1.0000 0.0000 -0.0000
vn 1.0000 0.0000 -0.0000
vn 1.0000 0.0000 -0.0000
vn 1.0000 0.0000 -0.0000
vn 1.0000 0.0000 -0.0000
vn 1.0000 0.0000 -0.0000
vn 1.0000 0.0000 -0.0000
vn 1.0000 0.0000 -0.0000
vn 1.0000 0.0000 -0.0000
vn 1.0000 0.0000 -0.0000
vn 1.0000 0.0000 -0.0000
vn 1.0000 0.0000 -0.0000
vn 1.0000 0.0000 -0.0000
vn 1.0000 0.0000 -0.0000
vn 1.0000 0.0000 -0.0000
vn 1.0000 0.0000 -0.0000
vn 1.0000 0.0000 -0.0000
vn 1.0000 0.0000 -0.0000
vn 1.0000 0.0000 -0.0000
vn 1.0000 0.0000 -0.0000
vn 1.0000 0.0000 -0.0000
vn 1.0000 0.0000 -0.0000
vn 1.0000 0.0000 -0.0000
vn 1.0000 0.0000 -0.0000
vn 1.0000 0.0000 -0.0000
vn 1.0000 0.0000 -0.0000
vn 1.0000 0.0000 -0.0000
vn 1.0000 0.0000 -0.0000
vn 1.0000 0.0000 -0.0000
vn 1.0000 0.0000 -0.0000
vn 1.0000 0.0000 -0.0000
vn 1.0000 0.0000 -0.0000
vn 1.0000 0.0000 -0.0000
vn 1.0000 0.0000 -0.0000
vn 1.0000 0.0000 -0.0000
vn 1.0000 0.0000 -0.0000
vn -1.0000 0.0000 -0.0000
vn -1.0000 0.0000 -0.0000
vn -1.0000 0.0000 -0.0000
vn -1.0000 0.0000 -0.0000
vn -1.0000 0.0000 -0.0000
vn -1.0000 0.0000 -0.0000
vn -1.0000 0.0000 -0.0000
vn -1.0000 0.0000 -0.0000
vn -1.0000 0.0000 -0.0000
vn -1.0000 0.0000 -0.0000
vn -1.0000 0.0000 -0.0000
vn -1.0000 0.0000 -0.0000
vn -1.0000 0.0000 -0.0000
vn -1.0000 0.0000 -0.0000
vn -1.0000 0.0000 -0.0000
vn -1.0000 0.0000 -0.0000
vn -1.0000 0.0000 -0.0000
vn -1.0000 0.0000 -0.0000
vn -1.0000 0.0000 -0.0000
vn -1.0000 0.0000 -0.0000
vn -1.0000 0.0000 -0.0000
vn -1.0000 0.0000 -0.0000
vn -1.0000 0.0000 -0.0000
vn -1.0000 0.0000 -0.0000
vn 0.0000 0.0000 1.0000
vn 0.0000 0.0000 1.0000
vn 0.0000 0.0000 1.0000
vn 0.0000 0.0000 1.0000
vn 0.0000 0.0000 1.0000
vn 0.0000 0.0000 1.0000
vn 0.0000 -1.0000 -0.0000
vn 0.0000 -1.0000 -0.0000
vn 0.0000 -1.0000 -0.0000
vn 0.0000 -1.0000 -0.0000
vn 0.0000 -1.0000 -0.0000
vn 0.0000 -1.0000 -0.0000
vn 0.0000 0.0000 -1.0000
vn 0.0000 0.0000 -1.0000
vn 0.0000 0.0000 -1.0000
vn 0.0000 0.0000 -1.0000
vn 0.0000 0.0000 -1.0000
vn 0.0000 0.0000 -1.0000
vn 0.0000 1.0000 -0.0000
vn 0.0000 1.0000 -0.0000
vn 0.0000 1.0000 -0.0000
vn 0.0000 1.0000 -0.0000
vn 0.0000 1.0000 -0.0000
vn 0.0000 1.0000 -0.0000
vn 0.0000 0.0000 -1.0000
vn 0.0000 0.0000 -1.0000
vn 0.0000 0.0000 -1.0000
vn 0.0000 0.0000 -1.0000
vn 0.0000 0.0000 -1.0000
vn 0.0000 0.0000 -1.0000
vn 0.0000 -1.0000 -0.0000
vn 0.0000 -1.0000 -0.0000
vn 0.0000 -1.0000 -0.0000
vn 0.0000 -1.0000 -0.0000
vn 0.0000 -1.0000 -0.0000
vn 0.0000 -1.0000 -0.0000
vn 0.0000 0.0000 1.0000
vn 0.0000 0.0000 1.0000
vn 0.0000 0.0000 1.0000
vn 0.0000 0.0000 1.0000
vn 0.0000 0.0000 1.0000
vn 0.0000 0.0000 1.0000
vn 0.0000 1.0000 -0.0000
vn 0.0000 1.0000 -0.0000
vn 0.0000 1.0000 -0.0000
vn 0.0000 1.0000 -0.0000
vn 0.0000 1.0000 -0.0000
vn 0.0000 1.0000 -0.0000
vn 0.0000 0.0000 -1.0000
vn 0.0000 0.0000 -1.0000
vn 0.0000 0.0000 -1.0000
vn 0.0000 0.0000 -1.0000
vn 0.0000 0.0000 -1.0000
vn 0.0000 0.0000 -1.0000
vn 0.0000 1.0000 -0.0000
vn 0.0000 1.0000 -0.0000
vn 0.0000 1.0000 -0.0000
vn 0.0000 1.0000 -0.0000
vn 0.0000 1.0000 -0.0000
vn 0.0000 1.0000 -0.0000
vn 0.0000 0.0000 1.0000
vn 0.0000 0.0000 1.0000
vn 0.0000 0.0000 1.0000
vn 0.0000 0.0000 1.0000
vn 0.0000 0.0000 1.0000
vn 0.0000 0.0000 1.0000
vn 0.0000 -1.0000 -0.0000
vn 0.0000 -1.0000 -0.0000
vn 0.0000 -1.0000 -0.0000
vn 0.0000 -1.0000 -0.0000
vn 0.0000 -1.0000 -0.0000
vn 0.0000 -1.0000 -0.0000
vn 0.0000 0.0000 1.0000
vn 0.0000 0.0000 1.0000
vn 0.0000 0.0000 1.0000
vn 0.0000 0.0000 1.0000
vn 0.0000 0.0000 1.0000
vn 0.0000 0.0000 1.0000
vn 0.0000 1.0000 -0.0000
vn 0.0000 1.0000 -0.0000
vn 0.0000 1.0000 -0.0000
vn 0.0000 1.0000 -0.0000
vn 0.0000 1.0000 -0.0000
vn 0.0000 1.0000 -0.0000
vn 0.0000 0.0000 -1.0000
vn 0.0000 0.0000 -1.0000
vn 0.0000 0.0000 -1.0000
vn 0.0000 0.0000 -1.0000
vn 0.0000 0.0000 -1.0000
vn 0.0000 0.0000 -1.0000
vn 0.0000 -1.0000 -0.0000
vn 0.0000 -1.0000 -0.0000
vn 0.0000 -1.0000 -0.0000
vn 0.0000 -1.0000 -0.0000
vn 0.0000 -1.0000 -0.0000
vn 0.0000 -1.0000 -0.0000
# 408 vertex normals

vt 1.0000 0.0000 0.0000
vt 0.0000 0.0000 0.0000
vt 1.0000 1.0000 0.0000
vt 0.0000 1.0000 0.0000
vt 0.0000 0.0000 0.0000
vt 1.0000 0.0000 0.0000
vt 0.0000 1.0000 0.0000
vt 1.0000 1.0000 0.0000
vt 0.0000 0.0000 0.0000
vt 1.0000 0.0000 0.0000
vt 0.0000 1.0000 0.0000
vt 1.0000 1.0000 0.0000
vt 0.0000 0.0000 0.0000
vt 1.0000 0.0000 0.0000
vt 0.0000 1.0000 0.0000
vt 1.0000 1.0000 0.0000
vt 0.0000 0.0000 0.0000
vt 1.0000 0.0000 0.0000
vt 0.0000 1.0000 0.0000
vt 1.0000 1.0000 0.0000
vt 0.0000 0.0000 0.0000
vt 1.0000 0.0000 0.0000
vt 0.0000 1.0000 0.0000
vt 1.0000 1.0000 0.0000
vt 0.6667 1.0000 0.0000
vt 0.3333 1.0000 0.0000
vt 0.6667 0.0000 0.0000
vt 0.3333 0.0000 0.0000
vt 0.3333 0.0000 0.0000
vt 0.6667 0.0000 0.0000
vt 0.6667 0.0000 0.0000
vt 0.3333 0.0000 0.0000
vt 0.3333 0.0000 0.0000
vt 0.6667 0.0000 0.0000
vt 0.3333 1.0000 0.0000
vt 0.6667 1.0000 0.0000
vt 0.6667 1.0000 0.0000
vt 0.3333 1.0000 0.0000
vt 0.3333 1.0000 0.0000
vt 0.6667 1.0000 0.0000
vt 1.0000 0.0000 0.0000
vt 1.0000 1.0000 0.0000
vt 0.6667 1.0000 0.0000
vt 0.6667 0.0000 0.0000
vt 1.0000 0.5000 0.0000
vt 0.5000 1.0000 0.0000
vt 0.6667 0.5000 0.0000
vt 1.0000 0.5000 0.0000
vt 0.6667 0.5000 0.0000
vt 1.0000 0.0000 0.0000
vt 1.0000 1.0000 0.0000
vt 0.6667 1.0000 0.0000
vt 0.6667 0.0000 0.0000
vt 1.0000 0.5000 0.0000
vt 0.6667 0.5000 0.0000
vt 0.6667 1.0000 0.0000
vt 0.6667 0.5000 0.0000
vt 0.6667 0.5000 0.0000
vt 0.6667 1.0000 0.0000
vt 1.0000 1.0000 0.0000
vt 1.0000 1.0000 0.0000
vt 1.0000 0.5000 0.0000
vt 1.0000 0.5000 0.0000
vt 1.0000 0.0000 0.0000
vt 1.0000 0.5000 0.0000
vt 1.0000 0.5000 0.0000
vt 1.0000 0.0000 0.0000
vt 0.6667 0.0000 0.0000
vt 0.6667 0.0000 0.0000
vt 0.6667 0.5000 0.0000
vt 0.6667 0.5000 0.0000
vt 0.6667 0.5000 0.0000
vt 0.6667 1.0000 0.0000
vt 0.6667 1.0000 0.0000
vt 0.6667 0.5000 0.0000
vt 1.0000 1.0000 0.0000
vt 1.0000 0.5000 0.0000
vt 1.0000 0.5000 0.0000
vt 1.0000 1.0000 0.0000
vt 1.0000 0.5000 0.0000
vt 1.0000 0.0000 0.0000
vt 1.0000 0.0000 0.0000
vt 1.0000 0.5000 0.0000
vt 0.6667 0.0000 0.0000
vt 0.6667 0.5000 0.0000
vt 0.6667 0.5000 0.0000
vt 0.6667 0.0000 0.0000
# 87 texture coords

g Box001
usemtl wire_196088225
f 10/26/1 11/29/2 12/30/3 
f 12/30/4 9/25/5 10/26/6 
f 22/47/7 15/37/8 16/38/9 
f 14/34/10 22/47/11 16/38/12 
f 13/33/13 14/34/14 16/38/15 
f 11/31/16 14/36/17 13/35/18 
f 13/35/19 12/32/20 11/31/21 
f 2/13/22 4/14/23 8/16/24 
f 2/13/25 8/16/26 21/46/27 
f 2/13/28 21/46/29 6/15/30 
f 9/27/31 16/40/32 15/39/33 
f 15/39/34 10/28/35 9/27/36 
f 3/21/37 1/22/38 5/24/39 
f 5/24/40 7/23/41 3/21/42 
f 4/4/43 2/2/44 11/29/45 
f 11/29/46 10/26/47 4/4/48 
f 1/1/49 3/3/50 9/25/51 
f 9/25/52 12/30/53 1/1/54 
f 17/41/55 23/48/56 24/49/57 
f 24/49/58 20/44/59 17/41/60 
f 7/7/61 5/5/62 13/33/63 
f 13/33/64 16/38/65 7/7/66 
f 2/10/67 6/12/68 14/36/69 
f 14/36/70 11/31/71 2/10/72 
f 5/11/73 1/9/74 12/32/75 
f 12/32/76 13/35/77 5/11/78 
f 3/18/79 7/20/80 16/40/81 
f 16/40/82 9/27/83 3/18/84 
f 8/19/85 4/17/86 10/28/87 
f 10/28/88 15/39/89 8/19/90 
f 15/37/91 27/52/92 26/51/93 
f 26/51/94 8/8/95 15/37/96 
f 6/6/97 25/50/98 28/53/99 
f 28/53/100 14/34/101 6/6/102 
f 18/42/103 19/43/104 24/49/105 
f 24/49/106 23/48/107 18/42/108 
f 19/43/109 18/42/110 26/51/111 
f 26/51/112 27/52/113 19/43/114 
f 17/41/115 20/44/116 28/53/117 
f 28/53/118 25/50/119 17/41/120 
f 15/37/121 22/47/122 32/57/123 
f 32/57/124 31/56/125 15/37/126 
f 22/47/127 30/55/128 33/58/129 
f 33/58/130 32/57/131 22/47/132 
f 30/55/133 27/52/134 34/59/135 
f 34/59/136 33/58/137 30/55/138 
f 27/52/139 15/37/140 31/56/141 
f 31/56/142 34/59/143 27/52/144 
f 8/8/145 26/51/146 36/61/147 
f 36/61/148 35/60/149 8/8/150 
f 26/51/151 29/54/152 37/62/153 
f 37/62/154 36/61/155 26/51/156 
f 29/54/157 21/45/158 38/63/159 
f 38/63/160 37/62/161 29/54/162 
f 21/45/163 8/8/164 35/60/165 
f 35/60/166 38/63/167 21/45/168 
f 6/6/169 21/45/170 40/65/171 
f 40/65/172 39/64/173 6/6/174 
f 21/45/175 29/54/176 41/66/177 
f 41/66/178 40/65/179 21/45/180 
f 29/54/181 25/50/182 42/67/183 
f 42/67/184 41/66/185 29/54/186 
f 25/50/187 6/6/188 39/64/189 
f 39/64/190 42/67/191 25/50/192 
f 14/34/193 28/53/194 44/69/195 
f 44/69/196 43/68/197 14/34/198 
f 28/53/199 30/55/200 45/70/201 
f 45/70/202 44/69/203 28/53/204 
f 30/55/205 22/47/206 46/71/207 
f 46/71/208 45/70/209 30/55/210 
f 22/47/211 14/34/212 43/68/213 
f 43/68/214 46/71/215 22/47/216 
f 24/49/217 19/43/218 48/73/219 
f 48/73/220 47/72/221 24/49/222 
f 19/43/223 27/52/224 49/74/225 
f 49/74/226 48/73/227 19/43/228 
f 27/52/229 30/55/230 50/75/231 
f 50/75/232 49/74/233 27/52/234 
f 30/55/235 24/49/236 47/72/237 
f 47/72/238 50/75/239 30/55/240 
f 18/42/241 23/48/242 52/77/243 
f 52/77/244 51/76/245 18/42/246 
f 23/48/247 29/54/248 53/78/249 
f 53/78/250 52/77/251 23/48/252 
f 29/54/253 26/51/254 54/79/255 
f 54/79/256 53/78/257 29/54/258 
f 26/51/259 18/42/260 51/76/261 
f 51/76/262 54/79/263 26/51/264 
f 23/48/265 17/41/266 56/81/267 
f 56/81/268 55/80/269 23/48/270 
f 17/41/271 25/50/272 57/82/273 
f 57/82/274 56/81/275 17/41/276 
f 25/50/277 29/54/278 58/83/279 
f 58/83/280 57/82/281 25/50/282 
f 29/54/283 23/48/284 55/80/285 
f 55/80/286 58/83/287 29/54/288 
f 20/44/289 24/49/290 60/85/291 
f 60/85/292 59/84/293 20/44/294 
f 24/49/295 30/55/296 61/86/297 
f 61/86/298 60/85/299 24/49/300 
f 30/55/301 28/53/302 62/87/303 
f 62/87/304 61/86/305 30/55/306 
f 28/53/307 20/44/308 59/84/309 
f 59/84/310 62/87/311 28/53/312 
f 40/65/313 41/66/314 45/70/315 
f 45/70/316 46/71/317 40/65/318 
f 41/66/319 42/67/320 44/69/321 
f 44/69/322 45/70/323 41/66/324 
f 42/67/325 39/64/326 43/68/327 
f 43/68/328 44/69/329 42/67/330 
f 39/64/331 40/65/332 46/71/333 
f 46/71/334 43/68/335 39/64/336 
f 32/57/337 33/58/338 37/62/339 
f 37/62/340 38/63/341 32/57/342 
f 33/58/343 34/59/344 36/61/345 
f 36/61/346 37/62/347 33/58/348 
f 34/59/349 31/56/350 35/60/351 
f 35/60/352 36/61/353 34/59/354 
f 31/56/355 32/57/356 38/63/357 
f 38/63/358 35/60/359 31/56/360 
f 56/81/361 57/82/362 62/87/363 
f 62/87/364 59/84/365 56/81/366 
f 57/82/367 58/83/368 61/86/369 
f 61/86/370 62/87/371 57/82/372 
f 58/83/373 55/80/374 60/85/375 
f 60/85/376 61/86/377 58/83/378 
f 55/80/379 56/81/380 59/84/381 
f 59/84/382 60/85/383 55/80/384 
f 48/73/385 49/74/386 54/79/387 
f 54/79/388 51/76/389 48/73/390 
f 49/74/391 50/75/392 53/78/393 
f 53/78/394 54/79/395 49/74/396 
f 50/75/397 47/72/398 52/77/399 
f 52/77/400 53/78/401 50/75/402 
f 47/72/403 48/73/404 51/76/405 
f 51/76/406 52/77/407 47/72/408 
# 136 faces

